<?xml version="1.0" standalone="no"?><!DOCTYPE svg PUBLIC "-//W3C//DTD SVG 1.1//EN" "http://www.w3.org/Graphics/SVG/1.1/DTD/svg11.dtd"><svg t="1572420001435" class="icon" viewBox="0 0 1024 1024" version="1.1" xmlns="http://www.w3.org/2000/svg" p-id="1030" xmlns:xlink="http://www.w3.org/1999/xlink" width="200" height="200"><defs><style type="text/css"></style></defs><path d="M452.77 888.83c-5.09 0-10.25-1.3-14.97-4.02L226.25 762.66c-14.35-8.28-19.27-26.63-10.98-40.98 8.28-14.35 26.63-19.27 40.98-10.98L467.8 832.84c14.35 8.28 19.27 26.63 10.98 40.98-5.56 9.62-15.64 15.01-26.01 15.01z" fill="#FF4E83" p-id="1031"></path><path d="M782.73 317.33c-5.09 0-10.25-1.3-14.97-4.02L556.19 191.15c-14.35-8.28-19.26-26.63-10.98-40.98 8.28-14.35 26.63-19.27 40.98-10.98l211.57 122.15c14.35 8.28 19.26 26.63 10.98 40.98-5.55 9.63-15.64 15.01-26.01 15.01z" fill="#FF9668" p-id="1032"></path><path d="M512 229.35c-54.23 0-98.35-44.12-98.35-98.35S457.77 32.65 512 32.65s98.35 44.12 98.35 98.35-44.12 98.35-98.35 98.35z m0-136.7c-21.15 0-38.35 17.21-38.35 38.35s17.21 38.35 38.35 38.35c21.15 0 38.35-17.21 38.35-38.35S533.15 92.65 512 92.65zM181.88 419.83c-16.68 0-33.56-4.24-49.01-13.16-46.97-27.12-63.12-87.39-36-134.35 13.14-22.75 34.35-39.03 59.72-45.83 25.38-6.8 51.88-3.31 74.63 9.83 22.75 13.14 39.03 34.34 45.83 59.72 6.8 25.38 3.31 51.88-9.83 74.63-18.2 31.52-51.33 49.16-85.34 49.16z m0.23-136.68c-13.27 0-26.18 6.88-33.28 19.17-10.57 18.31-4.28 41.82 14.04 52.39 18.31 10.57 41.82 4.28 52.39-14.04 5.12-8.87 6.48-19.21 3.83-29.1s-9-18.17-17.87-23.29a38.188 38.188 0 0 0-19.11-5.13zM182.21 800.83c-34.02 0-67.14-17.64-85.34-49.16-27.12-46.97-10.97-107.24 36-134.35 22.75-13.14 49.26-16.63 74.63-9.83 25.38 6.8 46.58 23.07 59.72 45.83 13.14 22.75 16.63 49.26 9.83 74.63-6.8 25.38-23.07 46.59-45.83 59.72-15.45 8.93-32.34 13.16-49.01 13.16z m-0.23-136.7c-6.65 0-13.2 1.74-19.11 5.16-18.31 10.57-24.61 34.08-14.04 52.39 10.57 18.31 34.08 24.61 52.39 14.04 8.87-5.12 15.22-13.39 17.87-23.29 2.65-9.9 1.29-20.23-3.83-29.1-5.12-8.87-13.39-15.22-23.29-17.87a38.37 38.37 0 0 0-9.99-1.33z m-34.11-20.82zM512 991.35c-54.23 0-98.35-44.12-98.35-98.35s44.12-98.35 98.35-98.35 98.35 44.12 98.35 98.35-44.12 98.35-98.35 98.35z m0-136.7c-21.15 0-38.35 17.21-38.35 38.35 0 21.15 17.21 38.35 38.35 38.35 21.15 0 38.35-17.21 38.35-38.35 0-21.15-17.2-38.35-38.35-38.35zM841.79 800.83c-16.68 0-33.56-4.24-49.01-13.16-46.97-27.12-63.12-87.39-36-134.35 13.13-22.75 34.34-39.03 59.72-45.83 25.38-6.8 51.88-3.31 74.63 9.83 46.97 27.12 63.12 87.39 36 134.35-18.19 31.52-51.32 49.16-85.34 49.16z m-19.01-65.12c18.31 10.58 41.82 4.28 52.39-14.04s4.28-41.82-14.04-52.39c-8.87-5.12-19.21-6.48-29.1-3.83s-18.17 9-23.29 17.87-6.48 19.21-3.83 29.1 9 18.17 17.87 23.29zM842.12 419.83c-34.02 0-67.14-17.64-85.34-49.16-27.12-46.97-10.97-107.24 36-134.35 22.75-13.14 49.26-16.63 74.63-9.83 25.38 6.8 46.58 23.07 59.72 45.83 27.12 46.97 10.97 107.24-36 134.35-15.44 8.92-32.33 13.16-49.01 13.16z m34.01-39.14z m-34.24-97.56c-6.65 0-13.2 1.74-19.11 5.16-18.31 10.57-24.61 34.08-14.04 52.39 10.57 18.31 34.08 24.61 52.39 14.04 18.31-10.57 24.61-34.08 14.04-52.39-5.12-8.87-13.39-15.22-23.29-17.87-3.3-0.89-6.65-1.33-9.99-1.33z" fill="#352E70" p-id="1033"></path><path d="M841.96 664.18c-16.57 0-30-13.43-30-30V389.84c0-16.57 13.43-30 30-30s30 13.43 30 30v244.33c0 16.57-13.43 30.01-30 30.01zM571.23 888.83c-10.37 0-20.45-5.38-26.01-15-8.28-14.35-3.37-32.7 10.98-40.98L767.75 710.7c14.35-8.29 32.7-3.37 40.98 10.98s3.37 32.7-10.98 40.98L586.2 884.8a29.825 29.825 0 0 1-14.97 4.03zM182.04 664.18c-16.57 0-30-13.43-30-30V389.86c0-16.57 13.43-30 30-30s30 13.43 30 30v244.31c0 16.57-13.43 30.01-30 30.01zM241.28 317.32c-10.37 0-20.45-5.38-26.01-15-8.28-14.35-3.37-32.7 10.98-40.98l211.6-122.17c14.35-8.28 32.7-3.37 40.98 10.98 8.28 14.35 3.37 32.7-10.98 40.98L256.25 313.3a29.84 29.84 0 0 1-14.97 4.02zM511.22 542a29.89 29.89 0 0 1-15.01-4.03A30.01 30.01 0 0 1 481.22 512V199.35c0-16.57 13.43-30 30-30s30 13.43 30 30V460.1l226.53-130.48c14.36-8.27 32.7-3.33 40.97 11.02 8.27 14.36 3.33 32.7-11.02 40.97L526.2 538c-4.64 2.67-9.81 4-14.98 4z" fill="#352E70" p-id="1034"></path><path d="M511.2 542c-5.1 0-10.27-1.3-15-4.04L226.18 381.7c-14.34-8.3-19.24-26.65-10.94-40.99 8.3-14.34 26.65-19.24 40.99-10.94l270.02 156.26c14.34 8.3 19.24 26.65 10.94 40.99-5.56 9.61-15.64 14.98-25.99 14.98z" fill="#352E70" p-id="1035"></path><path d="M241.23 698.27c-10.36 0-20.43-5.37-25.99-14.98-8.3-14.34-3.4-32.69 10.94-40.99L496.2 486.03c14.34-8.3 32.69-3.4 40.99 10.94 8.3 14.34 3.4 32.69-10.94 40.99L256.23 694.23c-4.73 2.74-9.9 4.04-15 4.04z" fill="#352E70" p-id="1036"></path><path d="M511.86 854.65c-16.54 0-29.96-13.39-30-29.94l-0.64-312.65a30.011 30.011 0 0 1 14.96-26.02 29.99 29.99 0 0 1 30.01-0.04l271.5 156.38c14.36 8.27 19.29 26.61 11.02 40.97s-26.61 19.29-40.97 11.02L541.33 563.96l0.53 260.63c0.03 16.57-13.37 30.03-29.94 30.06h-0.06z" fill="#352E70" p-id="1037"></path></svg>