<?xml version="1.0" standalone="no"?><!DOCTYPE svg PUBLIC "-//W3C//DTD SVG 1.1//EN" "http://www.w3.org/Graphics/SVG/1.1/DTD/svg11.dtd"><svg t="1572420763524" class="icon" viewBox="0 0 1024 1024" version="1.1" xmlns="http://www.w3.org/2000/svg" p-id="886" xmlns:xlink="http://www.w3.org/1999/xlink" width="200" height="200"><defs><style type="text/css"></style></defs><path d="M896.25 784.34H128.77c-16.57 0-30-13.43-30-30v-356.5c0-16.57 13.43-30 30-30s30 13.43 30 30v326.5h737.48c16.57 0 30 13.43 30 30s-13.43 30-30 30zM448.19 299.01c-51.82 0-93.98-42.16-93.98-93.98s42.16-93.98 93.98-93.98 93.98 42.16 93.98 93.98c0.01 51.82-42.15 93.98-93.98 93.98z m0-127.97c-18.74 0-33.98 15.24-33.98 33.98S429.45 239 448.19 239s33.98-15.24 33.98-33.98-15.24-33.98-33.98-33.98z" fill="#352E70" p-id="887"></path><path d="M703.67 299.01c-51.82 0-93.98-42.16-93.98-93.98s42.16-93.98 93.98-93.98 93.98 42.16 93.98 93.98c0 51.82-42.16 93.98-93.98 93.98z m0-127.97c-18.74 0-33.98 15.24-33.98 33.98S684.93 239 703.67 239s33.98-15.24 33.98-33.98-15.25-33.98-33.98-33.98z" fill="#FF4E83" p-id="888"></path><path d="M765.78 621.94H128.22c-16.57 0-30-13.43-30-30s13.43-30 30-30h637.56c16.57 0 30 13.43 30 30s-13.44 30-30 30z" fill="#352E70" p-id="889"></path><path d="M769.17 784.34c-16.57 0-30-13.43-30-30v-326.5H670.2v6.04c0 51.75-42.1 93.85-93.85 93.85s-93.85-42.1-93.85-93.85v-6.04H128.77c-16.57 0-30-13.43-30-30s13.43-30 30-30h383.74c16.57 0 30 13.43 30 30v36.04c0 18.66 15.18 33.85 33.85 33.85s33.85-15.18 33.85-33.85v-36.04c0-16.57 13.43-30 30-30h128.97c16.57 0 30 13.43 30 30v356.5c-0.01 16.57-13.44 30-30.01 30z" fill="#FF9668" p-id="890"></path><path d="M896.25 784.34c-16.57 0-30-13.43-30-30V310.01c0-5.51-4.49-10-10-10H168.77c-5.51 0-10 4.49-10 10v87.84c0 16.57-13.43 30-30 30s-30-13.43-30-30v-87.84c0-38.6 31.4-70 70-70h687.48c38.6 0 70 31.4 70 70v444.34c0 16.56-13.43 29.99-30 29.99z" fill="#FF9668" p-id="891"></path><path d="M864.1 911.96H158.88c-32.64 0-60.67-22.19-68.14-53.97L73.76 785.8c-3.52-14.96-0.07-30.45 9.48-42.49 9.54-12.05 23.83-18.96 39.2-18.96h779.14c15.5 0 29.86 7 39.4 19.22 9.54 12.21 12.86 27.84 9.11 42.88l-18.07 72.45a69.902 69.902 0 0 1-67.92 53.06zM135.06 784.34l14.09 59.9a9.961 9.961 0 0 0 9.73 7.71H864.1c4.6 0 8.59-3.12 9.7-7.58l14.97-60.03H135.06z" fill="#352E70" p-id="892"></path></svg>