<?xml version="1.0" standalone="no"?><!DOCTYPE svg PUBLIC "-//W3C//DTD SVG 1.1//EN" "http://www.w3.org/Graphics/SVG/1.1/DTD/svg11.dtd"><svg t="1572420775516" class="icon" viewBox="0 0 1024 1024" version="1.1" xmlns="http://www.w3.org/2000/svg" p-id="1023" xmlns:xlink="http://www.w3.org/1999/xlink" width="200" height="200"><defs><style type="text/css"></style></defs><path d="M791.16 860.94H231.04c-38.6 0-70-31.4-70-70V136.93c0-38.6 31.4-70 70-70h560.12c38.6 0 70 31.4 70 70v654.01c0 38.6-31.4 70-70 70zM231.04 126.93c-5.51 0-10 4.49-10 10v654.01c0 5.51 4.49 10 10 10h560.12c5.51 0 10-4.49 10-10V136.93c0-5.51-4.49-10-10-10H231.04z" fill="#352E70" p-id="1024"></path><path d="M820.63 957.07H256.89c-16.57 0-30-13.43-30-30s13.43-30 30-30h563.74c42.11 0 76.36-34.26 76.36-76.36V190.56c0-16.57 13.43-30 30-30s30 13.43 30 30v630.15c0.01 75.19-61.17 136.36-136.36 136.36z" fill="#FF9668" p-id="1025"></path><path d="M229.18 220.56H97c-16.57 0-30-13.43-30-30s13.43-30 30-30h132.17c16.57 0 30 13.43 30 30s-13.43 30-29.99 30zM229.18 348.77H97c-16.57 0-30-13.43-30-30s13.43-30 30-30h132.17c16.57 0 30 13.43 30 30s-13.43 30-29.99 30zM229.18 476.99H97c-16.57 0-30-13.43-30-30s13.43-30 30-30h132.17c16.57 0 30 13.43 30 30s-13.43 30-29.99 30zM229.18 605.2H97c-16.57 0-30-13.43-30-30s13.43-30 30-30h132.17c16.57 0 30 13.43 30 30s-13.43 30-29.99 30zM229.18 733.41H97c-16.57 0-30-13.43-30-30s13.43-30 30-30h132.17c16.57 0 30 13.43 30 30s-13.43 30-29.99 30zM670.21 444.78H511c-16.57 0-30-13.43-30-30V254.73c0-16.57 13.43-30 30-30s30 13.43 30 30v130.05h129.21c16.57 0 30 13.43 30 30s-13.43 30-30 30z" fill="#352E70" p-id="1026"></path><path d="M398.18 557.6c-7.68 0-15.36-2.93-21.21-8.79-11.72-11.72-11.72-30.71 0-42.43l112.82-112.82c11.72-11.71 30.71-11.71 42.43 0 11.72 11.72 11.72 30.71 0 42.43L419.39 548.81a29.91 29.91 0 0 1-21.21 8.79z" fill="#352E70" p-id="1027"></path><path d="M510.33 604.82c-104.79 0-190.05-85.25-190.05-190.05s85.25-190.05 190.05-190.05c104.79 0 190.05 85.25 190.05 190.05s-85.25 190.05-190.05 190.05z m0-320.09c-71.71 0-130.05 58.34-130.05 130.05s58.34 130.05 130.05 130.05c71.71 0 130.05-58.34 130.05-130.05s-58.34-130.05-130.05-130.05z" fill="#FF4E83" p-id="1028"></path></svg>